<?xml version="1.0" encoding="UTF-8" standalone="no"?>
<svg
   viewBox="0 0 56.692909 40.000011"
   version="1.1"
   id="svg2"
   xmlns="http://www.w3.org/2000/svg"
   xmlns:svg="http://www.w3.org/2000/svg">
  <defs
     id="defs2" />
  <path
     style="fill:rgba(73, 212, 150, 1);stroke:#000000;stroke-width:0.0507347"
     d="M 5.8861926,36.581588 C 7.581153,33.647135 8.9435349,30.069049 9.6299246,26.749249 11.01152,20.067008 10.386384,13.430531 7.779606,7.1061855 7.4208008,6.2356826 6.3587687,4.079151 5.8819949,3.2529517 5.6842834,2.9103379 5.5225193,2.6195404 5.5225193,2.6067351 c 0,-0.047632 13.4044517,-0.020991 14.2454437,0.028314 2.200508,0.1290068 3.901939,0.3804518 5.859558,0.8659508 5.176368,1.2837651 9.877396,4.0516118 13.814669,8.1337271 2.076937,2.153345 4.095784,4.85152 5.741765,7.673834 l 0.348119,0.596908 -0.606694,1.006899 c -4.470367,7.419226 -10.109013,12.276245 -17.016166,14.657385 -2.560062,0.882544 -5.182077,1.395413 -8.065072,1.577529 -0.511545,0.03232 -3.462963,0.05297 -7.576669,0.05303 l -6.7387024,8.5e-5 z"
     id="path3" />
  <path
     fill-rule="evenodd"
     d="M 0,0 2,2.4375 C 2,2.4375 7.65625,9.437549 7.65625,20 7.65625,30.562451 2,37.5625 2,37.5625 L 0,40 h 17.15625 c 2.408076,10e-7 7.689699,0.02451 13.625,-2.40625 5.935301,-2.430764 12.536536,-7.343266 17.6875,-16.875 0.225284,-0.548516 0.134239,-0.881741 -0.0279,-1.419149 C 38.137734,0.2339406 21.912824,0 17.15625,0 Z M 5.875,3 H 17.15625 C 21.840423,3 35.4431,2.869793 45.125,20 40.358214,28.429075 34.603719,32.68391 29.40625,34.8125 24.045589,37.007924 19.564325,37.000001 17.15625,37 h -11.25 c 1.873588,-3.108434 4.75,-9.04935 4.75,-17 0,-7.973354 -2.908531,-13.900185 -4.78125,-17 z"
     id="path2" />
  <path
     style="fill:rgba(73, 212, 150, 1);stroke:#000000;stroke-width:0.0623893"
     d="m 50.5595,23.245157 c -2.441464,-0.530953 -3.296284,-3.572114 -1.481295,-5.269948 1.237817,-1.157916 2.989782,-1.157916 4.227599,0 0.640107,0.598789 0.974471,1.370281 0.974471,2.248436 0,1.463 -1.029316,2.715834 -2.484737,3.0243 -0.503423,0.106701 -0.734996,0.106174 -1.236038,-0.0028 z"
     id="path1" />
  <path
     fill="none"
     stroke="#000000"
     stroke-width="3"
     d="m 55.192909,20.21427 a 4,4 0 1 1 -8,0 4,4 0 1 1 8,0 z"
     style="marker:none"
     id="path3-7" />
</svg>
