<?xml version="1.0" encoding="UTF-8" standalone="no"?>
<svg
   width="40.476189"
   height="40"
   version="1.1"
   id="svg2"
   xmlns="http://www.w3.org/2000/svg"
   xmlns:svg="http://www.w3.org/2000/svg">
  <defs
     id="defs2" />
  <path
     style="fill:rgba(255, 66, 66, 1);fill-opacity:1;stroke:#000000;stroke-width:0.0654881"
     d="M 2.1776159,20.171434 V 1.8578307 l 10.2243491,0.02093 c 10.111261,0.020699 10.233727,0.022497 11.0723,0.162506 2.250092,0.3756795 3.731261,0.8504522 5.531089,1.772931 0.920357,0.471717 2.16054,1.2808129 2.95528,1.928027 0.675494,0.550102 1.903415,1.7956426 2.462337,2.4976689 3.500157,4.3963264 4.847085,10.4363354 3.590074,16.0989004 -1.366827,6.157264 -5.845507,11.165602 -11.766628,13.158172 -0.83598,0.281323 -2.29491,0.632528 -3.130901,0.753695 -1.429978,0.207261 -2.697442,0.232349 -11.789799,0.23336 l -9.1481011,0.001 z"
     id="path1" />
  <path
     d="m 0,0 v 40 h 20.47619 c 11.267908,0 20,-9.000045 20,-20 0,-10.9999551 -8.732091,-20 -20,-20 z M 2.857143,2.857143 H 20.47619 c 9.760663,0 16.666667,7.639955 16.666667,17.142857 0,9.502902 -7.382195,17.142857 -17.142857,17.142857 H 2.857143 Z"
     id="path2" />
</svg>
