<?xml version="1.0" encoding="UTF-8" standalone="no"?>
<svg
   width="54.545044"
   height="44.8125"
   version="1.1"
   id="svg3"
   xmlns="http://www.w3.org/2000/svg"
   xmlns:svg="http://www.w3.org/2000/svg">
  <defs
     id="defs3" />
  <path
     style="fill:rgba(255, 66, 66, 1);stroke:#000000;stroke-width:0.104723"
     d="m 2.0643824,22.310428 c 0,-10.030754 0.024796,-18.2377346 0.055102,-18.2377346 0.053026,0 35.7255126,17.0715726 37.3110626,17.8557366 l 0.776378,0.383973 -18.898803,9.05279 C 10.913781,36.344228 2.3317077,40.447275 2.2368503,40.483074 2.0776953,40.543137 2.0643822,39.140374 2.0643824,22.310428 Z"
     id="path3" />
  <path
     d="M 0,0 V 44.8125 L 2.15625,43.75 C 16.462275,36.268117 31.532491,30.205333 45.658014,22.381662 31.261228,15.075323 16.670229,8.137098 2.15625,1.0625 Z M 3,4.8125 39.125,22.40625 3,40 Z"
     style="marker:none"
     id="path2" />
  <path
     style="fill:rgba(255, 66, 66, 1);stroke:#000000;stroke-width:0.126931"
     d="m 48.224609,25.57248 c -1.329342,-0.382588 -2.305047,-1.68626 -2.301757,-3.075453 0.0015,-0.661719 0.474978,-1.671992 1.030393,-2.198893 1.477863,-1.401989 3.945118,-0.95922 4.857515,0.871721 0.860465,1.72673 -0.03923,3.81156 -1.882141,4.361376 -0.704308,0.210125 -1.085194,0.219345 -1.70401,0.04125 z"
     id="path4" />
  <path
     fill="none"
     stroke="#000000"
     stroke-width="3"
     d="m 53.045045,22.568475 a 4,4 0 1 1 -8,0 4,4 0 1 1 8,0 z"
     style="marker:none"
     id="path3-6" />
</svg>
