<?xml version="1.0" encoding="UTF-8" standalone="no"?>
<svg
   width="62.450294"
   height="40.000011"
   version="1.1"
   id="svg3"
   xmlns="http://www.w3.org/2000/svg"
   xmlns:svg="http://www.w3.org/2000/svg">
  <defs
     id="defs3" />
  <path
     style="fill:gray;stroke:#000000;stroke-width:0.072864"
     d="m 10.956058,37.613775 c 0.528686,-0.807327 1.67722,-3.10629 2.238063,-4.479818 2.478372,-6.069639 3.166041,-12.56843 2.006867,-18.965853 -0.650735,-3.591378 -2.055367,-7.4622015 -3.847847,-10.6037228 -0.268125,-0.4699191 -0.4875,-0.8709874 -0.4875,-0.8912628 0,-0.068911 13.0916,-0.034448 14.411974,0.037938 3.542237,0.1941997 6.495662,0.8185388 9.521459,2.012789 5.873003,2.3180123 10.831381,6.5235286 14.906694,12.6433146 0.774609,1.163208 1.732313,2.741319 1.732313,2.854515 0,0.107918 -0.959984,1.691384 -1.707849,2.817048 -5.165116,7.774377 -11.951967,12.540537 -20.147269,14.148703 -2.748573,0.539353 -3.739695,0.588658 -11.848101,0.58941 l -6.886005,6.38e-4 z"
     id="path4" />
  <path
     d="m 5.90625,37 c -1.59737,2.6444 -2.25,3 -2.25,3 H 0 L 2,37.5625 C 2,37.5625 7.65625,30.56245 7.65625,20 7.65625,9.43755 2,2.4375 2,2.4375 L 0,0 H 3.65625 C 4.4375,0.9375 5.07813,1.65625 5.875,3 c 1.87272,3.09981 4.78125,9.02665 4.78125,17 0,7.95065 -2.8967,13.87942 -4.75,17 z"
     id="path2" />
  <path
     style="fill:gray;stroke:#000000;stroke-width:0.0365783"
     d="m 56.495199,22.787459 c -1.119556,-0.182814 -2.059049,-1.038274 -2.364819,-2.153295 -0.09018,-0.32882 -0.09122,-1.096438 -0.002,-1.426554 0.274018,-1.013307 1.009445,-1.767424 2.038853,-2.09067 0.230587,-0.07241 0.34984,-0.08565 0.766856,-0.08514 0.58485,7.04e-4 0.817061,0.05251 1.29853,0.289666 1.155169,0.569012 1.801092,1.836732 1.576047,3.093232 -0.108506,0.605858 -0.401244,1.142993 -0.868733,1.594048 -0.65546,0.632416 -1.565527,0.922293 -2.444784,0.778717 z"
     id="path5" />
  <path
     d="m 5.75,0 2,2.4375 c 0,0 5.65625,7.00005 5.65625,17.5625 0,10.56245 -5.65625,17.5625 -5.65625,17.5625 L 5.75,40 h 17.15625 c 2.40808,0 7.6897,0.02451 13.625,-2.40625 5.9353,-2.43076 12.53654,-7.34327 17.6875,-16.875 0.316765,-0.588972 0.21733,-0.84826 0,-1.4375 C 43.91564,0.21559 27.66282,0 22.90625,0 Z m 5.875,3 H 22.90625 C 27.59042,3 41.1931,2.8698 50.875,20 46.10821,28.42907 40.35372,32.68391 35.15625,34.8125 29.79559,37.00792 25.31433,37 22.90625,37 h -11.25 c 1.87359,-3.10843 4.75,-9.04935 4.75,-17 0,-7.97335 -2.90853,-13.90019 -4.78125,-17 z"
     id="path3" />
  <path
     fill="none"
     stroke="#000000"
     stroke-width="3"
     d="m 60.950293,19.917148 a 4,4 0 1 1 -8,0 4,4 0 1 1 8,0 z"
     style="marker:none"
     id="path3-7" />
</svg>
